# xmcd
#
# Track frame offsets:
#	150
#	15973
#	26244
#	40027
#	57283
#	71666
#	85780
#	102039
#	114221
#	128295
#
# Disc length: 1904 seconds
#
# Revision: 1
# Processed by: cddbd v1.5.1PL2 Copyright (c) Steve Scherf et al.
# Submitted via: dBpowerAMP V4.0
#
DISCID=6b076e0a
DTITLE=Los Unicos de Mexico - Ha Llegado la Hora
DYEAR=1900
DGENRE=Balada
TTITLE0=Amarras(Balada)
TTITLE1=Que tonto eres(Balada)
TTITLE2=El vicio de tu amor(Cumbia)
TTITLE3=Cuando te fuiste(Balada)
TTITLE4=Me gusta estar contigo(Balada/Country)
TTITLE5=Ha llegado la hora(Balada)
TTITLE6=Un adios(Balada)
TTITLE7=Mi corazon ya te olvido(Cumbia)
TTITLE8=Mi amiga(Balada)
TTITLE9=Camisa rayada(Cumbia)
EXTD=DJ:'354'
EXTT0=
EXTT1=
EXTT2=
EXTT3=
EXTT4=
EXTT5=
EXTT6=
EXTT7=
EXTT8=
EXTT9=
PLAYORDER=
